<svg xmlns="http://www.w3.org/2000/svg" viewBox="0 0 64 64" width="64" height="64">
  <rect width="64" height="64" rx="14" fill="#F5EDE1" />
  <path
    d="M16 38c-4 0-7-3-7-7 0-3.5 2.6-6.4 6-6.9C16.5 18.4 21.7 14 28 14c5.9 0 10.9 3.9 12.6 9.2 4 .2 7.4 3.1 7.4 7.3 0 4.1-3.4 7.5-7.6 7.5H16z"
    fill="#D97A46"
  />
  <path
    d="M17 42h30c0 5-3 8-8 8H25c-5 0-8-3-8-8z"
    fill="#8B5E3C"
  />
  <g stroke="#5C3A21" stroke-width="2" stroke-linecap="round" opacity="0.6">
    <path d="M24 26v6" />
    <path d="M32 24v8" />
    <path d="M40 26v6" />
  </g>
</svg>
